<svg id="svg" version="1.1" xmlns="http://www.w3.org/2000/svg" xmlns:xlink="http://www.w3.org/1999/xlink" width="400" height="213.33333333333334" viewBox="0, 0, 400,213.33333333333334"><g id="svgg"><path id="path0" d="M186.667 46.667 L 186.667 53.333 180.000 53.333 L 173.333 53.333 173.333 60.000 L 173.333 66.667 153.333 66.667 L 133.333 66.667 133.333 73.333 L 133.333 80.000 126.667 80.000 L 120.000 80.000 120.000 86.667 L 120.000 93.333 126.667 93.333 L 133.333 93.333 133.333 100.000 L 133.333 106.667 126.667 106.667 L 120.000 106.667 120.000 113.333 L 120.000 120.000 126.667 120.000 L 133.333 120.000 133.333 126.667 L 133.333 133.333 146.667 133.333 L 160.000 133.333 160.000 146.667 L 160.000 160.000 166.667 160.000 L 173.333 160.000 173.333 166.667 L 173.333 173.333 180.000 173.333 L 186.667 173.333 186.667 180.000 L 186.667 186.667 220.000 186.667 L 253.333 186.667 253.333 180.000 L 253.333 173.333 260.000 173.333 L 266.667 173.333 266.667 166.667 L 266.667 160.000 273.333 160.000 L 280.000 160.000 280.000 120.000 L 280.000 80.000 273.333 80.000 L 266.667 80.000 266.667 73.333 L 266.667 66.667 260.000 66.667 L 253.333 66.667 253.333 60.000 L 253.333 53.333 246.667 53.333 L 240.000 53.333 240.000 46.667 L 240.000 40.000 213.333 40.000 L 186.667 40.000 186.667 46.667 M240.000 60.000 L 240.000 66.667 246.667 66.667 L 253.333 66.667 253.333 73.333 L 253.333 80.000 260.000 80.000 L 266.667 80.000 266.667 120.000 L 266.667 160.000 260.000 160.000 L 253.333 160.000 253.333 166.667 L 253.333 173.333 220.000 173.333 L 186.667 173.333 186.667 166.667 L 186.667 160.000 180.000 160.000 L 173.333 160.000 173.333 140.000 L 173.333 120.000 153.333 120.000 L 133.333 120.000 133.333 113.333 L 133.333 106.667 153.333 106.667 L 173.333 106.667 173.333 100.000 L 173.333 93.333 153.333 93.333 L 133.333 93.333 133.333 86.667 L 133.333 80.000 153.333 80.000 L 173.333 80.000 173.333 73.333 L 173.333 66.667 180.000 66.667 L 186.667 66.667 186.667 60.000 L 186.667 53.333 213.333 53.333 L 240.000 53.333 240.000 60.000 M186.667 73.333 L 186.667 80.000 193.333 80.000 L 200.000 80.000 200.000 73.333 L 200.000 66.667 193.333 66.667 L 186.667 66.667 186.667 73.333 M226.667 73.333 L 226.667 80.000 233.333 80.000 L 240.000 80.000 240.000 73.333 L 240.000 66.667 233.333 66.667 L 226.667 66.667 226.667 73.333 " stroke="none" fill="#000000" fill-rule="evenodd"></path></g></svg>