<svg id="svg" version="1.1" xmlns="http://www.w3.org/2000/svg" xmlns:xlink="http://www.w3.org/1999/xlink" width="400" height="209.52380952380952" viewBox="0, 0, 400,209.52380952380952"><g id="kitchimatchi_wif_hat"><path id="path0" d="M190.476 47.619 L 190.476 66.667 180.952 66.667 L 171.429 66.667 171.429 71.429 L 171.429 76.190 180.952 76.190 L 190.476 76.190 190.476 80.952 L 190.476 85.714 185.714 85.714 L 180.952 85.714 180.952 90.476 L 180.952 95.238 166.667 95.238 L 152.381 95.238 152.381 100.000 L 152.381 104.762 147.619 104.762 L 142.857 104.762 142.857 109.524 L 142.857 114.286 147.619 114.286 L 152.381 114.286 152.381 119.048 L 152.381 123.810 147.619 123.810 L 142.857 123.810 142.857 128.571 L 142.857 133.333 147.619 133.333 L 152.381 133.333 152.381 138.095 L 152.381 142.857 161.905 142.857 L 171.429 142.857 171.429 152.381 L 171.429 161.905 176.190 161.905 L 180.952 161.905 180.952 166.667 L 180.952 171.429 185.714 171.429 L 190.476 171.429 190.476 176.190 L 190.476 180.952 214.286 180.952 L 238.095 180.952 238.095 176.190 L 238.095 171.429 242.857 171.429 L 247.619 171.429 247.619 166.667 L 247.619 161.905 252.381 161.905 L 257.143 161.905 257.143 133.333 L 257.143 104.762 252.381 104.762 L 247.619 104.762 247.619 100.000 L 247.619 95.238 242.857 95.238 L 238.095 95.238 238.095 90.476 L 238.095 85.714 233.333 85.714 L 228.571 85.714 228.571 80.952 L 228.571 76.190 238.095 76.190 L 247.619 76.190 247.619 71.429 L 247.619 66.667 238.095 66.667 L 228.571 66.667 228.571 47.619 L 228.571 28.571 209.524 28.571 L 190.476 28.571 190.476 47.619 M219.048 52.381 L 219.048 66.667 209.524 66.667 L 200.000 66.667 200.000 52.381 L 200.000 38.095 209.524 38.095 L 219.048 38.095 219.048 52.381 M228.571 90.476 L 228.571 95.238 233.333 95.238 L 238.095 95.238 238.095 100.000 L 238.095 104.762 242.857 104.762 L 247.619 104.762 247.619 133.333 L 247.619 161.905 242.857 161.905 L 238.095 161.905 238.095 166.667 L 238.095 171.429 214.286 171.429 L 190.476 171.429 190.476 166.667 L 190.476 161.905 185.714 161.905 L 180.952 161.905 180.952 147.619 L 180.952 133.333 166.667 133.333 L 152.381 133.333 152.381 128.571 L 152.381 123.810 166.667 123.810 L 180.952 123.810 180.952 119.048 L 180.952 114.286 166.667 114.286 L 152.381 114.286 152.381 109.524 L 152.381 104.762 166.667 104.762 L 180.952 104.762 180.952 100.000 L 180.952 95.238 185.714 95.238 L 190.476 95.238 190.476 90.476 L 190.476 85.714 209.524 85.714 L 228.571 85.714 228.571 90.476 M190.476 100.000 L 190.476 104.762 195.238 104.762 L 200.000 104.762 200.000 100.000 L 200.000 95.238 195.238 95.238 L 190.476 95.238 190.476 100.000 M219.048 100.000 L 219.048 104.762 223.810 104.762 L 228.571 104.762 228.571 100.000 L 228.571 95.238 223.810 95.238 L 219.048 95.238 219.048 100.000 " stroke="none" fill="#000000" fill-rule="evenodd"></path></g></svg>