<svg id="svg" version="1.1" xmlns="http://www.w3.org/2000/svg" xmlns:xlink="http://www.w3.org/1999/xlink" width="400" height="213.33333333333334" viewBox="0, 0, 400,213.33333333333334"><g id="svgg"><path id="path0" d="M193.333 76.667 L 193.333 80.000 190.000 80.000 L 186.667 80.000 186.667 83.333 L 186.667 86.667 176.667 86.667 L 166.667 86.667 166.667 90.000 L 166.667 93.333 163.333 93.333 L 160.000 93.333 160.000 96.667 L 160.000 100.000 163.333 100.000 L 166.667 100.000 166.667 103.333 L 166.667 106.667 163.333 106.667 L 160.000 106.667 160.000 110.000 L 160.000 113.333 163.333 113.333 L 166.667 113.333 166.667 116.667 L 166.667 120.000 173.333 120.000 L 180.000 120.000 180.000 126.667 L 180.000 133.333 183.333 133.333 L 186.667 133.333 186.667 136.667 L 186.667 140.000 190.000 140.000 L 193.333 140.000 193.333 143.333 L 193.333 146.667 210.000 146.667 L 226.667 146.667 226.667 143.333 L 226.667 140.000 230.000 140.000 L 233.333 140.000 233.333 136.667 L 233.333 133.333 236.667 133.333 L 240.000 133.333 240.000 113.333 L 240.000 93.333 236.667 93.333 L 233.333 93.333 233.333 90.000 L 233.333 86.667 230.000 86.667 L 226.667 86.667 226.667 83.333 L 226.667 80.000 223.333 80.000 L 220.000 80.000 220.000 76.667 L 220.000 73.333 206.667 73.333 L 193.333 73.333 193.333 76.667 M220.000 83.333 L 220.000 86.667 223.333 86.667 L 226.667 86.667 226.667 90.000 L 226.667 93.333 230.000 93.333 L 233.333 93.333 233.333 113.333 L 233.333 133.333 230.000 133.333 L 226.667 133.333 226.667 136.667 L 226.667 140.000 210.000 140.000 L 193.333 140.000 193.333 136.667 L 193.333 133.333 190.000 133.333 L 186.667 133.333 186.667 123.333 L 186.667 113.333 176.667 113.333 L 166.667 113.333 166.667 110.000 L 166.667 106.667 176.667 106.667 L 186.667 106.667 186.667 103.333 L 186.667 100.000 176.667 100.000 L 166.667 100.000 166.667 96.667 L 166.667 93.333 176.667 93.333 L 186.667 93.333 186.667 90.000 L 186.667 86.667 190.000 86.667 L 193.333 86.667 193.333 83.333 L 193.333 80.000 206.667 80.000 L 220.000 80.000 220.000 83.333 M193.333 90.000 L 193.333 93.333 196.667 93.333 L 200.000 93.333 200.000 90.000 L 200.000 86.667 196.667 86.667 L 193.333 86.667 193.333 90.000 M213.333 90.000 L 213.333 93.333 216.667 93.333 L 220.000 93.333 220.000 90.000 L 220.000 86.667 216.667 86.667 L 213.333 86.667 213.333 90.000 " stroke="none" fill="#000000" fill-rule="evenodd"></path></g></svg>