<svg id="svg" xmlns="http://www.w3.org/2000/svg" xmlns:xlink="http://www.w3.org/1999/xlink" width="400" height="213.33333333333334" viewBox="0, 0, 400,213.33333333333334"><g id="svgg"><path id="path0" d="M200.000 20.000 L 200.000 26.667 193.333 26.667 L 186.667 26.667 186.667 33.333 L 186.667 40.000 173.333 40.000 L 160.000 40.000 160.000 46.667 L 160.000 53.333 153.333 53.333 L 146.667 53.333 146.667 60.000 L 146.667 66.667 140.000 66.667 L 133.333 66.667 133.333 100.000 L 133.333 133.333 140.000 133.333 L 146.667 133.333 146.667 140.000 L 146.667 146.667 153.333 146.667 L 160.000 146.667 160.000 153.333 L 160.000 160.000 153.333 160.000 L 146.667 160.000 146.667 173.333 L 146.667 186.667 166.667 186.667 L 186.667 186.667 186.667 180.000 L 186.667 173.333 206.667 173.333 L 226.667 173.333 226.667 180.000 L 226.667 186.667 246.667 186.667 L 266.667 186.667 266.667 173.333 L 266.667 160.000 260.000 160.000 L 253.333 160.000 253.333 153.333 L 253.333 146.667 260.000 146.667 L 266.667 146.667 266.667 140.000 L 266.667 133.333 273.333 133.333 L 280.000 133.333 280.000 100.000 L 280.000 66.667 273.333 66.667 L 266.667 66.667 266.667 60.000 L 266.667 53.333 260.000 53.333 L 253.333 53.333 253.333 46.667 L 253.333 40.000 240.000 40.000 L 226.667 40.000 226.667 33.333 L 226.667 26.667 220.000 26.667 L 213.333 26.667 213.333 20.000 L 213.333 13.333 206.667 13.333 L 200.000 13.333 200.000 20.000 M213.333 40.000 L 213.333 53.333 233.333 53.333 L 253.333 53.333 253.333 60.000 L 253.333 66.667 260.000 66.667 L 266.667 66.667 266.667 100.000 L 266.667 133.333 260.000 133.333 L 253.333 133.333 253.333 140.000 L 253.333 146.667 206.667 146.667 L 160.000 146.667 160.000 140.000 L 160.000 133.333 153.333 133.333 L 146.667 133.333 146.667 100.000 L 146.667 66.667 153.333 66.667 L 160.000 66.667 160.000 60.000 L 160.000 53.333 180.000 53.333 L 200.000 53.333 200.000 40.000 L 200.000 26.667 206.667 26.667 L 213.333 26.667 213.333 40.000 M173.333 73.333 L 173.333 80.000 180.000 80.000 L 186.667 80.000 186.667 73.333 L 186.667 66.667 180.000 66.667 L 173.333 66.667 173.333 73.333 M226.667 73.333 L 226.667 80.000 233.333 80.000 L 240.000 80.000 240.000 73.333 L 240.000 66.667 233.333 66.667 L 226.667 66.667 226.667 73.333 M160.000 106.667 L 160.000 120.000 166.667 120.000 L 173.333 120.000 173.333 126.667 L 173.333 133.333 206.667 133.333 L 240.000 133.333 240.000 126.667 L 240.000 120.000 246.667 120.000 L 253.333 120.000 253.333 106.667 L 253.333 93.333 206.667 93.333 L 160.000 93.333 160.000 106.667 M186.667 113.333 L 186.667 120.000 180.000 120.000 L 173.333 120.000 173.333 113.333 L 173.333 106.667 180.000 106.667 L 186.667 106.667 186.667 113.333 M213.333 113.333 L 213.333 120.000 206.667 120.000 L 200.000 120.000 200.000 113.333 L 200.000 106.667 206.667 106.667 L 213.333 106.667 213.333 113.333 M240.000 113.333 L 240.000 120.000 233.333 120.000 L 226.667 120.000 226.667 113.333 L 226.667 106.667 233.333 106.667 L 240.000 106.667 240.000 113.333 " stroke="none" fill="#000000" fill-rule="evenodd"></path></g></svg>