<svg id="svg" xmlns="http://www.w3.org/2000/svg" xmlns:xlink="http://www.w3.org/1999/xlink" width="400" height="420.0913242009132" viewBox="0, 0, 400,420.0913242009132" version="1.1"><g id="svgg"><path id="path0" d="M170.299 57.991 L 169.863 116.895 161.644 116.895 L 153.425 116.895 153.425 107.763 L 153.425 98.630 136.073 98.630 L 118.721 98.630 118.721 107.763 L 118.721 116.895 110.502 116.895 L 102.283 116.895 102.283 134.247 L 102.283 151.598 110.502 151.598 L 118.721 151.598 118.721 177.169 L 118.721 202.740 110.502 202.740 L 102.283 202.740 102.283 220.091 L 102.283 237.443 93.151 237.443 L 84.018 237.443 84.018 254.795 L 84.018 272.146 93.151 272.146 L 102.283 272.146 102.283 280.365 L 102.283 288.584 110.502 288.584 L 118.721 288.584 118.721 297.717 L 118.721 306.849 127.854 306.849 L 136.986 306.849 136.986 315.068 L 136.986 323.288 127.854 323.288 L 118.721 323.288 118.721 332.420 L 118.721 341.553 144.257 341.553 L 169.792 341.553 170.322 381.279 L 170.851 421.005 171.270 372.112 L 171.689 323.220 214.155 323.711 L 256.621 324.201 256.752 332.420 L 256.883 340.639 265.428 341.196 L 273.973 341.753 273.973 315.169 L 273.973 288.584 282.662 288.584 L 291.351 288.584 290.697 280.365 L 290.043 272.146 299.359 272.146 L 308.676 272.146 308.676 254.895 L 308.676 237.643 300.000 237.086 L 291.324 236.530 291.324 219.633 L 291.324 202.736 282.648 202.738 L 273.973 202.740 273.973 177.169 L 273.973 151.598 282.016 151.598 L 290.058 151.598 290.691 142.922 C 291.039 138.151,291.074 130.342,290.768 125.571 L 290.211 116.895 282.092 116.895 L 273.973 116.895 273.973 107.763 L 273.973 98.630 256.621 98.630 L 239.269 98.630 239.269 107.763 L 239.269 116.895 231.119 116.895 L 222.968 116.895 222.443 133.790 L 221.918 150.685 213.242 151.242 L 204.566 151.798 204.566 159.917 L 204.566 168.037 196.347 168.037 L 188.128 168.037 188.128 159.817 L 188.128 151.598 179.929 151.598 L 171.730 151.598 171.232 75.342 C 170.746 0.816,170.725 0.422,170.299 57.991 M169.863 245.662 L 169.863 306.849 153.425 306.849 L 136.986 306.849 136.986 297.717 L 136.986 288.584 127.854 288.584 L 118.721 288.584 118.721 280.365 L 118.721 272.146 127.854 272.146 L 136.986 272.146 136.986 254.795 L 136.986 237.443 127.854 237.443 L 118.721 237.443 118.721 220.091 L 118.721 202.740 127.854 202.740 L 136.986 202.740 136.986 193.607 L 136.986 184.475 153.425 184.475 L 169.863 184.475 169.863 245.662 M256.621 193.607 L 256.621 201.826 247.945 202.383 L 239.269 202.940 239.269 211.059 L 239.269 219.178 248.402 219.178 L 257.534 219.178 257.534 210.959 L 257.534 202.740 265.753 202.740 L 273.973 202.740 273.973 245.662 L 273.973 288.584 256.621 288.584 L 239.269 288.584 239.269 297.717 L 239.269 306.849 205.479 306.849 L 171.689 306.849 171.689 272.146 L 171.689 237.443 197.260 237.443 L 222.831 237.443 222.831 228.311 L 222.831 219.178 197.260 219.178 L 171.689 219.178 171.689 201.793 L 171.689 184.408 214.155 184.898 L 256.621 185.388 256.621 193.607 M136.986 210.959 L 136.986 219.178 145.205 219.178 L 153.425 219.178 153.425 210.959 L 153.425 202.740 145.205 202.740 L 136.986 202.740 136.986 210.959 " stroke="none" fill="#000000" fill-rule="evenodd"></path></g></svg>