<svg id="svg" version="1.1" xmlns="http://www.w3.org/2000/svg" xmlns:xlink="http://www.w3.org/1999/xlink" width="750" height="400" viewBox="0, 0, 400,400"><g id="pet"><path id="path0" d="M175.000 37.500 L 175.000 50.000 162.500 50.000 L 150.000 50.000 150.000 62.500 L 150.000 75.000 125.000 75.000 L 100.000 75.000 100.000 87.500 L 100.000 100.000 87.500 100.000 L 75.000 100.000 75.000 112.500 L 75.000 125.000 62.500 125.000 L 50.000 125.000 50.000 187.500 L 50.000 250.000 62.500 250.000 L 75.000 250.000 75.000 262.500 L 75.000 275.000 87.500 275.000 L 100.000 275.000 100.000 287.500 L 100.000 300.000 87.500 300.000 L 75.000 300.000 75.000 325.000 L 75.000 350.000 112.500 350.000 L 150.000 350.000 150.000 337.500 L 150.000 325.000 187.500 325.000 L 225.000 325.000 225.000 337.500 L 225.000 350.000 262.500 350.000 L 300.000 350.000 300.000 325.000 L 300.000 300.000 287.500 300.000 L 275.000 300.000 275.000 287.500 L 275.000 275.000 287.500 275.000 L 300.000 275.000 300.000 262.500 L 300.000 250.000 312.500 250.000 L 325.000 250.000 325.000 187.500 L 325.000 125.000 312.500 125.000 L 300.000 125.000 300.000 112.500 L 300.000 100.000 287.500 100.000 L 275.000 100.000 275.000 87.500 L 275.000 75.000 250.000 75.000 L 225.000 75.000 225.000 62.500 L 225.000 50.000 212.500 50.000 L 200.000 50.000 200.000 37.500 L 200.000 25.000 187.500 25.000 L 175.000 25.000 175.000 37.500 M200.000 75.000 L 200.000 100.000 237.500 100.000 L 275.000 100.000 275.000 112.500 L 275.000 125.000 287.500 125.000 L 300.000 125.000 300.000 187.500 L 300.000 250.000 287.500 250.000 L 275.000 250.000 275.000 262.500 L 275.000 275.000 187.500 275.000 L 100.000 275.000 100.000 262.500 L 100.000 250.000 87.500 250.000 L 75.000 250.000 75.000 187.500 L 75.000 125.000 87.500 125.000 L 100.000 125.000 100.000 112.500 L 100.000 100.000 137.500 100.000 L 175.000 100.000 175.000 75.000 L 175.000 50.000 187.500 50.000 L 200.000 50.000 200.000 75.000 M125.000 137.500 L 125.000 150.000 137.500 150.000 L 150.000 150.000 150.000 137.500 L 150.000 125.000 137.500 125.000 L 125.000 125.000 125.000 137.500 M225.000 137.500 L 225.000 150.000 237.500 150.000 L 250.000 150.000 250.000 137.500 L 250.000 125.000 237.500 125.000 L 225.000 125.000 225.000 137.500 M100.000 200.000 L 100.000 225.000 112.500 225.000 L 125.000 225.000 125.000 237.500 L 125.000 250.000 187.500 250.000 L 250.000 250.000 250.000 237.500 L 250.000 225.000 262.500 225.000 L 275.000 225.000 275.000 200.000 L 275.000 175.000 187.500 175.000 L 100.000 175.000 100.000 200.000 M150.000 212.500 L 150.000 225.000 137.500 225.000 L 125.000 225.000 125.000 212.500 L 125.000 200.000 137.500 200.000 L 150.000 200.000 150.000 212.500 M200.000 212.500 L 200.000 225.000 187.500 225.000 L 175.000 225.000 175.000 212.500 L 175.000 200.000 187.500 200.000 L 200.000 200.000 200.000 212.500 M250.000 212.500 L 250.000 225.000 237.500 225.000 L 225.000 225.000 225.000 212.500 L 225.000 200.000 237.500 200.000 L 250.000 200.000 250.000 212.500 " stroke="none" fill="#000000" fill-rule="evenodd"></path></g></svg>