<svg id="svg" version="1.1" xmlns="http://www.w3.org/2000/svg" xmlns:xlink="http://www.w3.org/1999/xlink" width="400" height="213.33333333333334" viewBox="0, 0, 400,213.33333333333334"><g id="svgg"><path id="path0" d="M173.333 63.333 L 173.333 66.667 170.000 66.667 L 166.667 66.667 166.667 73.333 L 166.667 80.000 170.000 80.000 L 173.333 80.000 173.333 90.000 L 173.333 100.000 170.000 100.000 L 166.667 100.000 166.667 106.667 L 166.667 113.333 163.333 113.333 L 160.000 113.333 160.000 120.000 L 160.000 126.667 163.333 126.667 L 166.667 126.667 166.667 130.000 L 166.667 133.333 170.000 133.333 L 173.333 133.333 173.333 136.667 L 173.333 140.000 176.667 140.000 L 180.000 140.000 180.000 143.333 L 180.000 146.667 176.667 146.667 L 173.333 146.667 173.333 150.000 L 173.333 153.333 183.333 153.333 L 193.333 153.333 193.333 150.000 L 193.333 146.667 210.000 146.667 L 226.667 146.667 226.667 150.000 L 226.667 153.333 230.000 153.333 L 233.333 153.333 233.333 143.333 L 233.333 133.333 236.667 133.333 L 240.000 133.333 240.000 130.000 L 240.000 126.667 243.333 126.667 L 246.667 126.667 246.667 120.000 L 246.667 113.333 243.333 113.333 L 240.000 113.333 240.000 106.667 L 240.000 100.000 236.667 100.000 L 233.333 100.000 233.333 90.000 L 233.333 80.000 236.667 80.000 L 240.000 80.000 240.000 73.333 L 240.000 66.667 236.667 66.667 L 233.333 66.667 233.333 63.333 L 233.333 60.000 226.667 60.000 L 220.000 60.000 220.000 63.333 L 220.000 66.667 216.667 66.667 L 213.333 66.667 213.333 73.333 L 213.333 80.000 210.000 80.000 L 206.667 80.000 206.667 83.333 L 206.667 86.667 203.333 86.667 L 200.000 86.667 200.000 83.333 L 200.000 80.000 196.667 80.000 L 193.333 80.000 193.333 73.333 L 193.333 66.667 190.000 66.667 L 186.667 66.667 186.667 63.333 L 186.667 60.000 180.000 60.000 L 173.333 60.000 173.333 63.333 M226.667 96.667 L 226.667 100.000 230.000 100.000 L 233.333 100.000 233.333 116.667 L 233.333 133.333 223.333 133.333 L 213.333 133.333 213.333 136.667 L 213.333 140.000 196.667 140.000 L 180.000 140.000 180.000 136.667 L 180.000 133.333 176.667 133.333 L 173.333 133.333 173.333 130.000 L 173.333 126.667 176.667 126.667 L 180.000 126.667 180.000 120.000 L 180.000 113.333 176.667 113.333 L 173.333 113.333 173.333 106.667 L 173.333 100.000 176.667 100.000 L 180.000 100.000 180.000 96.667 L 180.000 93.333 203.333 93.333 L 226.667 93.333 226.667 96.667 M180.000 103.333 L 180.000 106.667 183.333 106.667 L 186.667 106.667 186.667 103.333 L 186.667 100.000 183.333 100.000 L 180.000 100.000 180.000 103.333 M220.000 103.333 L 220.000 106.667 223.333 106.667 L 226.667 106.667 226.667 103.333 L 226.667 100.000 223.333 100.000 L 220.000 100.000 220.000 103.333 M193.333 110.000 L 193.333 113.333 203.333 113.333 L 213.333 113.333 213.333 110.000 L 213.333 106.667 203.333 106.667 L 193.333 106.667 193.333 110.000 " stroke="none" fill="#000000" fill-rule="evenodd"></path></g></svg>