<svg id="svg" version="1.1" xmlns="http://www.w3.org/2000/svg" xmlns:xlink="http://www.w3.org/1999/xlink" width="400" height="213.33333333333334" viewBox="0, 0, 400,213.33333333333334"><g id="svgg"><path id="path0" d="M200.000 70.000 L 200.000 73.333 196.667 73.333 L 193.333 73.333 193.333 76.667 L 193.333 80.000 186.667 80.000 L 180.000 80.000 180.000 83.333 L 180.000 86.667 176.667 86.667 L 173.333 86.667 173.333 90.000 L 173.333 93.333 170.000 93.333 L 166.667 93.333 166.667 110.000 L 166.667 126.667 170.000 126.667 L 173.333 126.667 173.333 130.000 L 173.333 133.333 176.667 133.333 L 180.000 133.333 180.000 136.667 L 180.000 140.000 176.667 140.000 L 173.333 140.000 173.333 146.667 L 173.333 153.333 183.333 153.333 L 193.333 153.333 193.333 150.000 L 193.333 146.667 203.333 146.667 L 213.333 146.667 213.333 150.000 L 213.333 153.333 223.333 153.333 L 233.333 153.333 233.333 146.667 L 233.333 140.000 230.000 140.000 L 226.667 140.000 226.667 136.667 L 226.667 133.333 230.000 133.333 L 233.333 133.333 233.333 130.000 L 233.333 126.667 236.667 126.667 L 240.000 126.667 240.000 110.000 L 240.000 93.333 236.667 93.333 L 233.333 93.333 233.333 90.000 L 233.333 86.667 230.000 86.667 L 226.667 86.667 226.667 83.333 L 226.667 80.000 220.000 80.000 L 213.333 80.000 213.333 76.667 L 213.333 73.333 210.000 73.333 L 206.667 73.333 206.667 70.000 L 206.667 66.667 203.333 66.667 L 200.000 66.667 200.000 70.000 M206.667 80.000 L 206.667 86.667 216.667 86.667 L 226.667 86.667 226.667 90.000 L 226.667 93.333 230.000 93.333 L 233.333 93.333 233.333 110.000 L 233.333 126.667 230.000 126.667 L 226.667 126.667 226.667 130.000 L 226.667 133.333 203.333 133.333 L 180.000 133.333 180.000 130.000 L 180.000 126.667 176.667 126.667 L 173.333 126.667 173.333 110.000 L 173.333 93.333 176.667 93.333 L 180.000 93.333 180.000 90.000 L 180.000 86.667 190.000 86.667 L 200.000 86.667 200.000 80.000 L 200.000 73.333 203.333 73.333 L 206.667 73.333 206.667 80.000 M186.667 96.667 L 186.667 100.000 190.000 100.000 L 193.333 100.000 193.333 96.667 L 193.333 93.333 190.000 93.333 L 186.667 93.333 186.667 96.667 M213.333 96.667 L 213.333 100.000 216.667 100.000 L 220.000 100.000 220.000 96.667 L 220.000 93.333 216.667 93.333 L 213.333 93.333 213.333 96.667 M180.000 113.333 L 180.000 120.000 183.333 120.000 L 186.667 120.000 186.667 123.333 L 186.667 126.667 203.333 126.667 L 220.000 126.667 220.000 123.333 L 220.000 120.000 223.333 120.000 L 226.667 120.000 226.667 113.333 L 226.667 106.667 203.333 106.667 L 180.000 106.667 180.000 113.333 M193.333 116.667 L 193.333 120.000 190.000 120.000 L 186.667 120.000 186.667 116.667 L 186.667 113.333 190.000 113.333 L 193.333 113.333 193.333 116.667 M206.667 116.667 L 206.667 120.000 203.333 120.000 L 200.000 120.000 200.000 116.667 L 200.000 113.333 203.333 113.333 L 206.667 113.333 206.667 116.667 M220.000 116.667 L 220.000 120.000 216.667 120.000 L 213.333 120.000 213.333 116.667 L 213.333 113.333 216.667 113.333 L 220.000 113.333 220.000 116.667 " stroke="none" fill="#000000" fill-rule="evenodd"></path></g></svg>